<?xml version="1.0" encoding="UTF-8"?>
<svg id="Layer_1" xmlns="http://www.w3.org/2000/svg" version="1.1" viewBox="0 0 238.8 208">
  <!-- Generator: Adobe Illustrator 29.1.0, SVG Export Plug-In . SVG Version: 2.1.0 Build 142)  -->
  <defs>
    <style>
      .st0 {
        fill: #347060;
      }
    </style>
  </defs>
  <path class="st0" d="M75.6,43.5c8.5,4.8,8.5,12.9,9.1,20.6.5,6.5.2,6.5,6.8,6.5h75.5c2.1,0,4.3-.6,6.6,1.1-1.1,5.7-2.1,11.5-3.3,17.4-1.4,7.1-3.1,14.1-4.4,21.2-1,5.8-2.3,11.3-7.7,15-2.4,1.7-4.8,1.9-7.5,1.9h-52.5c-1.9,0-4-.6-5.8.8.3,6.7,1,7.5,7.5,7.5h47c6.6,0,9.4,4.5,5.8,10.2-1.1,1.7-1.2,2.7-.4,4.4,2.6,5.6,1.6,10.1-2.9,13.2-4.1,2.9-8.7,2.5-12.7-1.1-3.5-3.2-3.9-8.4-1.2-13.2.3-.6.6-1.1,1.2-2.2h-32.5c1.9,4.1,3.5,8.2,1.8,12.4-1,2.3-3,4-5.2,5.2-3.8,2-8.3.8-11.6-2.9-3.4-3.8-3.1-8.5,1.1-14.9,0-1.6-1.6-1.9-2.6-2.7-3.3-2.2-5.8-5.3-6.4-9.2-1.4-9.7-2-19.5-3.4-29.1-1.8-12.1-1.7-24.4-4.3-36.5-.6-2.9-.4-6-.5-8.9-.2-5.4-1.8-7-7.3-7.2h-12.5c-3,0-4.1-1.9-4-4.6.2-2.3-1-5.9,2.6-6.1,7.7-.4,15.6-1.6,23.6,1.1M153.4,114.3c2-9.3,3.7-18.7,6-28,1-4.2,0-5.2-4.2-5.2-21.1,0-42.3,0-63.4,0-4.4,0-5.3,1.6-4.7,5.8,1.2,7.8,2.1,15.7,2.7,23.6.4,5.9.6,6.5,6.7,6.5h49.4c2.6,0,5-.4,7.5-2.7Z"/>
</svg>