<?xml version="1.0" encoding="UTF-8"?>
<svg id="Layer_1" xmlns="http://www.w3.org/2000/svg" version="1.1" viewBox="0 0 115 119.8">
  <!-- Generator: Adobe Illustrator 29.1.0, SVG Export Plug-In . SVG Version: 2.1.0 Build 142)  -->
  <path d="M56.6,24.7c1.4.3,2.9.4,3.1.9,1.9,5,6.1,4,10,4.1,5.8,0,11.6,0,17.4,0,2.1,0,4.1,0,4.1,3,0,2.8-1.8,3.3-3.9,3.3-7,0-14,0-20.9,0-2.4,0-4.2.2-5.8,2.7-2.5,3.8-13.5,3.4-15.8-.5-1.1-1.8-2.3-2.1-4-2.1-2.5,0-5,0-7.5,0-2.1,0-4-.5-4.1-3.2,0-2.8,1.8-3.2,4-3.1,2,0,4,0,6,0,2.5,0,5,.3,5.8-3.1.4-1.7,2.2-1.8,3.7-1.8,2.5,0,5,0,7.9,0Z"/>
  <path d="M38.1,54.9c7.6,0,14.8,0,21.9,0,1.5,0,3.4.4,4.1-1.1,3.3-6.8,9.2-3.2,14.1-3.7.7,0,2.1.8,2.3,1.6,1,3.4,3.6,3.4,6.3,3.4,2.3,0,4.4.2,4.3,3.4,0,3.4-2.5,3-4.6,3-2.5,0-4.6,0-6,3-1.5,3.2-13.8,3.1-15.3,0-1.5-3-3.6-2.9-6.1-2.9-8.2,0-16.3,0-24.5,0-2.3,0-5.5,1-5.6-3,0-3.8,2.9-3.3,5.4-3.4,1,0,2,0,3.5,0Z"/>
  <path d="M83.9,87.1c-9.5,0-18.4,0-27.4,0-2.7,0-4.9,0-6.7,3-1.9,3.4-12.9,2.7-15.3-.5-.7-.9-1-2.1-2.3-2.4-2-.5-3.2-1.7-3.1-3.9.1-2.3,1.6-2.6,3.4-2.7.4,0,1.1-.3,1.2-.7,2.8-7.8,9.3-2.9,14.1-4.1.5-.1,1.6.4,1.7.8,1.6,6,6.4,3.9,10.2,4,8.6.2,17.3,0,25.9.1,2.2,0,5.5-1.1,5.6,3,.1,4-3,3.1-5.4,3.3-.5,0-1,0-2,0Z"/>
</svg>